<svg id="Layer_1" data-name="Layer 1" xmlns="http://www.w3.org/2000/svg" viewBox="0 0 1519 335.75"><defs><style>.cls-1{fill:#d80303;}.cls-2{fill:#f98506;}.cls-3{fill:#f9e103;}.cls-4{fill:#017a1b;}.cls-5{fill:#0355f9;}.cls-6{fill:#6c0382;}.cls-7{font-size:156.95px;font-family:SinhalaSangamMN-Bold, Sinhala Sangam MN;font-weight:700;letter-spacing:0.08em;}.cls-8{font-size:36.46px;font-family:Arial-Black, Arial Black;font-weight:800;letter-spacing:0.2em;}.cls-9{font-size:60.74px;font-family:ArialMT, Arial;letter-spacing:0.07em;}</style></defs><polygon class="cls-1" points="253.12 52.79 181.94 0 108.58 54.41 300.22 54.41 300.22 14.14 253.12 14.14 253.12 52.79"/><polygon class="cls-2" points="90.97 67.47 33.46 110.12 330.41 110.12 300.22 87.73 300.22 54.41 108.58 54.41 90.97 67.47"/><polygon class="cls-3" points="0 134.94 46.45 134.94 46.45 165.84 78.47 165.84 78.47 153.63 137.41 153.63 137.41 165.84 226.47 165.84 226.47 153.63 285.4 153.63 285.4 165.84 317.42 165.84 317.42 134.94 363.88 134.94 330.41 110.12 33.46 110.12 0 134.94"/><polygon class="cls-4" points="285.4 212.56 226.47 212.56 226.47 165.84 137.41 165.84 137.41 212.56 78.47 212.56 78.47 165.84 46.45 165.84 46.45 221.55 317.42 221.55 317.42 165.84 285.4 165.84 285.4 212.56"/><polygon class="cls-5" points="46.45 277.26 153.35 277.26 153.35 241.23 210.53 241.23 210.53 277.26 317.42 277.26 317.42 221.55 46.45 221.55 46.45 277.26"/><rect class="cls-6" x="210.53" y="277.26" width="106.9" height="54.41"/><rect class="cls-6" x="46.45" y="277.26" width="106.9" height="54.41"/><text class="cls-7" transform="translate(468.54 210.21)">Queer Homes</text><text class="cls-8" transform="translate(574.72 126) scale(0.88 1)">+</text><text class="cls-9" transform="translate(481.86 316.03)">LGBTQ+ House/ Flat Sharing</text></svg>